<?xml version="1.0" encoding="utf-8"?>
<!-- Generator: Adobe Illustrator 19.0.0, SVG Export Plug-In . SVG Version: 6.00 Build 0)  -->
<svg version="1.1" id="Layer_1" xmlns="http://www.w3.org/2000/svg" xmlns:xlink="http://www.w3.org/1999/xlink" x="0px" y="0px"
	 viewBox="0 0 550 373.7" style="enable-background:new 0 0 550 373.7;" xml:space="preserve">
<g id="XMLID_37_">
	<path id="XMLID_38_" d="M223.9,276.7c0,51.1-44.5,97.6-111.9,97.6c-36.3,0-75.7-15.8-96.6-41.9v34.2c0,4.1-3.6,7.2-7.7,7.2
		S0,370.7,0,366.7v-90c0-4.1,3.6-7.2,7.7-7.2s7.7,3.1,7.7,7.2V291c0,35.8,45.5,68,96.6,68c30.7,0,55.7-10.7,72.6-27.1L40.4,160.1
		C18.9,134.6,7.7,108,7.7,84C7.7,37.5,46,1.2,108.9,1.2c30.2,0,60.8,14.3,78.7,35.8V8.8c0-4.1,3.6-7.2,7.7-7.2s7.7,3.1,7.7,7.2V84
		c0,4.1-3.6,7.7-7.7,7.7s-7.7-3.6-7.7-7.7v-8.2c0-29.6-38.3-59.3-78.7-59.3c-25.6,0-46,6.6-60.8,17.4l151.8,179.9
		C216.7,233.8,223.9,255.2,223.9,276.7z M52.1,150.4l142.6,169.7c8.7-12.8,13.8-28.1,13.8-43.4c0-17.9-6.6-36.8-20.4-53.2L36.8,44.1
		C28.1,55.4,23,69.2,23,84C23,104.9,33.2,127.4,52.1,150.4z"/>
</g>
<g id="XMLID_29_">
	<path id="XMLID_30_" d="M452.4,373.1h-184c-5.1,0-7.7-3.8-7.7-7.5c0-3.2,2.6-7.5,7.7-7.5H296V10.8l-23.5,0c-5.1,0-7.7-3.8-7.7-7.5
		s2.6-7.5,7.7-7.5h178.9c47.5,0,86.9,41.5,86.9,91.7c0,36.7-21.5,69-51.6,83.6c37.3,14.6,63.4,52.3,63.4,96.5
		C550,325.6,506.6,372.5,452.4,373.1z M360.4,358V10.8h-49.1V358H360.4z M451.4,10.8h-75.7v153.1h75.7c3.6,0,6.6-0.5,10.2-0.5V11.9
		C458,11.3,454.9,10.8,451.4,10.8z M461.6,357.4V179.5c-3.6-0.5-6.6-0.5-10.2-0.5h-75.7v179h75.7C454.9,358,458,358,461.6,357.4z
		 M476.9,16.2v142.3c26.6-10.8,46-38.8,46-71.2C522.9,55.5,503.5,27.5,476.9,16.2z M534.7,267.4c0-39.4-24-72.8-57.8-84.1v170.4
		C510.6,341.8,534.7,307.8,534.7,267.4z"/>
</g>
</svg>
